  0
SECTION
  2
HEADER
  9
$ACADVER
  1
AC1015
  0
ENDSEC
  0
SECTION
  2
TABLES
  0
TABLE
  2
LTYPE
 70
     1
  0
LTYPE
  2
CONTINUOUS
 70
     0
  3
Solid line
 72
    65
 73
     0
 40
0.0
  0
ENDTAB
  0
TABLE
  2
LAYER
 70
     6
  0
LAYER
  2
0
 70
     0
 62
     7
  6
CONTINUOUS
  0
LAYER
  2
WALLS
 70
     0
 62
     1
  6
CONTINUOUS
  0
LAYER
  2
DOORS
 70
     0
 62
     2
  6
CONTINUOUS
  0
LAYER
  2
WINDOWS
 70
     0
 62
     3
  6
CONTINUOUS
  0
LAYER
  2
FIXTURES
 70
     0
 62
     4
  6
CONTINUOUS
  0
LAYER
  2
DIMENSIONS
 70
     0
 62
     5
  6
CONTINUOUS
  0
LAYER
  2
TEXT
 70
     0
 62
     6
  6
CONTINUOUS
  0
ENDTAB
  0
ENDSEC
  0
SECTION
  2
BLOCKS
  0
BLOCK
  2
DOOR_SWING
 70
     0
 10
0.0
 20
0.0
 30
0.0
  3
DOOR_SWING
  0
LINE
  8
DOORS
 10
0.0
 20
0.0
 11
3.0
 21
0.0
  0
ARC
  8
DOORS
 10
0.0
 20
0.0
 40
3.0
 50
0.0
 51
90.0
  0
ENDBLK
  2
DOOR_SWING
  0
BLOCK
  2
WINDOW_SYMBOL
 70
     0
 10
0.0
 20
0.0
 30
0.0
  3
WINDOW_SYMBOL
  0
LINE
  8
WINDOWS
 10
-1.5
 20
-0.2
 11
1.5
 21
-0.2
  0
LINE
  8
WINDOWS
 10
-1.5
 20
0.2
 11
1.5
 21
0.2
  0
LINE
  8
WINDOWS
 10
-1.5
 20
-0.2
 11
-1.5
 21
0.2
  0
LINE
  8
WINDOWS
 10
1.5
 20
-0.2
 11
1.5
 21
0.2
  0
LINE
  8
WINDOWS
 10
-1.5
 20
0.0
 11
1.5
 21
0.0
  0
ENDBLK
  2
WINDOW_SYMBOL
  0
BLOCK
  2
SINK_SYMBOL
 70
     0
 10
0.0
 20
0.0
 30
0.0
  3
SINK_SYMBOL
  0
LINE
  8
FIXTURES
 10
-1.0
 20
-1.0
 11
1.0
 21
-1.0
  0
LINE
  8
FIXTURES
 10
1.0
 20
-1.0
 11
1.0
 21
1.0
  0
LINE
  8
FIXTURES
 10
1.0
 20
1.0
 11
-1.0
 21
1.0
  0
LINE
  8
FIXTURES
 10
-1.0
 20
1.0
 11
-1.0
 21
-1.0
  0
CIRCLE
  8
FIXTURES
 10
0.0
 20
0.0
 40
0.6
  0
ENDBLK
  2
SINK_SYMBOL
  0
ENDSEC
  0
SECTION
  2
ENTITIES
  0
ENDSEC
  0
EOF
